<?xml version="1.0" encoding="utf-8"?>
<svg viewBox="16.413 24.8799 462.701 132.0003" xmlns="http://www.w3.org/2000/svg">
  <defs>
    <linearGradient id="paint0_linear_3_80" x1="129" y1="294" x2="260.512" y2="414.064" gradientUnits="userSpaceOnUse" gradientTransform="matrix(1, 0, 0, 1, -112.587346, -269.120295)">
      <stop stop-color="#2DFEF5"/>
      <stop offset="1" stop-color="#00ACF2"/>
    </linearGradient>
  </defs>
  <path fill-rule="evenodd" clip-rule="evenodd" d="M 71.577 29.896 C 71.577 26.04 67.407 23.631 64.072 25.558 L 27.222 46.852 C 23.886 48.78 23.886 53.599 27.222 55.527 L 64.072 76.821 C 67.407 78.748 71.577 76.339 71.577 72.484 L 71.577 29.896 Z M 85.754 76.761 C 82.419 78.688 78.249 76.279 78.249 72.424 L 78.249 29.896 C 78.249 26.04 82.419 23.631 85.754 25.558 L 122.552 46.822 C 125.888 48.75 125.888 53.569 122.552 55.497 L 85.754 76.761 Z M 89.038 91.248 C 85.703 89.32 85.703 84.501 89.038 82.574 L 125.907 61.268 C 129.243 59.341 133.413 61.75 133.413 65.606 L 133.413 108.216 C 133.413 112.072 129.243 114.481 125.907 112.553 L 89.038 91.248 Z M 91.052 156.202 C 87.716 158.129 83.546 155.72 83.546 151.864 L 83.546 109.351 C 83.546 105.495 87.716 103.086 91.052 105.013 L 127.837 126.27 C 131.173 128.198 131.173 133.017 127.837 134.945 L 91.052 156.202 Z M 60.684 91.248 C 64.02 89.32 64.02 84.501 60.684 82.574 L 23.919 61.328 C 20.583 59.401 16.413 61.81 16.413 65.665 L 16.413 108.156 C 16.413 112.012 20.583 114.421 23.919 112.494 L 60.684 91.248 Z M 27.235 126.962 C 23.899 125.035 23.899 120.216 27.235 118.288 L 64.072 97.001 C 67.407 95.073 71.577 97.483 71.577 101.338 L 71.577 143.912 C 71.577 147.767 67.407 150.177 64.072 148.249 L 27.235 126.962 Z M 113.707 130.998 C 115.265 130.014 115.732 127.952 114.748 126.393 C 113.765 124.833 111.705 124.367 110.147 125.351 L 99.219 132.252 L 96.995 128.265 C 96.096 126.655 94.064 126.079 92.456 126.978 C 90.847 127.877 90.271 129.911 91.17 131.521 L 94.252 137.045 C 95.651 139.552 98.864 140.371 101.291 138.839 L 113.707 130.998 Z" fill="url(#paint0_linear_3_80)"/>
  <path d="M 193.503 106.73 C 190.115 106.73 186.947 106.114 183.999 104.882 C 181.095 103.65 178.543 101.956 176.343 99.8 C 174.143 97.6 172.427 95.048 171.195 92.144 C 170.007 89.196 169.413 86.05 169.413 82.706 C 169.413 79.362 170.007 76.26 171.195 73.4 C 172.427 70.496 174.121 67.966 176.277 65.81 C 178.477 63.61 181.029 61.916 183.933 60.728 C 186.837 59.496 189.983 58.88 193.371 58.88 C 196.759 58.88 199.905 59.496 202.809 60.728 C 205.713 61.916 208.265 63.61 210.465 65.81 C 212.665 67.966 214.359 70.496 215.547 73.4 C 216.779 76.304 217.395 79.428 217.395 82.772 C 217.395 86.116 216.779 89.24 215.547 92.144 C 214.359 95.048 212.665 97.6 210.465 99.8 C 208.309 101.956 205.779 103.65 202.875 104.882 C 199.971 106.114 196.847 106.73 193.503 106.73 Z M 193.371 98.348 C 196.319 98.348 198.893 97.688 201.093 96.368 C 203.337 95.048 205.075 93.222 206.307 90.89 C 207.583 88.558 208.221 85.83 208.221 82.706 C 208.221 80.418 207.847 78.328 207.099 76.436 C 206.395 74.544 205.383 72.916 204.063 71.552 C 202.743 70.144 201.181 69.066 199.377 68.318 C 197.573 67.57 195.571 67.196 193.371 67.196 C 190.467 67.196 187.893 67.856 185.649 69.176 C 183.449 70.452 181.711 72.256 180.435 74.588 C 179.203 76.92 178.587 79.626 178.587 82.706 C 178.587 85.038 178.939 87.172 179.643 89.108 C 180.391 91.044 181.403 92.694 182.679 94.058 C 183.999 95.422 185.561 96.478 187.365 97.226 C 189.213 97.974 191.215 98.348 193.371 98.348 Z M 214.425 109.436 L 193.173 88.184 L 198.585 82.706 L 219.903 104.024 L 214.425 109.436 Z" fill="#3C3C3C"/>
  <path d="M 238.536 106.664 C 235.72 106.664 233.212 106.07 231.012 104.882 C 228.856 103.694 227.162 102.044 225.93 99.932 C 224.698 97.82 224.082 95.378 224.082 92.606 L 224.082 74.126 L 232.794 74.126 L 232.794 92.408 C 232.794 93.728 233.014 94.872 233.454 95.84 C 233.894 96.764 234.554 97.468 235.434 97.952 C 236.314 98.436 237.348 98.678 238.536 98.678 C 240.34 98.678 241.748 98.128 242.76 97.028 C 243.772 95.928 244.278 94.388 244.278 92.408 L 244.278 74.126 L 252.924 74.126 L 252.924 92.606 C 252.924 95.422 252.308 97.886 251.076 99.998 C 249.888 102.11 248.194 103.76 245.994 104.948 C 243.838 106.092 241.352 106.664 238.536 106.664 Z" fill="#3C3C3C"/>
  <path d="M 259.809 106.004 L 259.809 74.126 L 268.521 74.126 L 268.521 106.004 L 259.809 106.004 Z M 264.165 68.978 C 262.757 68.978 261.591 68.516 260.667 67.592 C 259.743 66.624 259.281 65.436 259.281 64.028 C 259.281 62.664 259.743 61.498 260.667 60.53 C 261.591 59.562 262.757 59.078 264.165 59.078 C 265.617 59.078 266.783 59.562 267.663 60.53 C 268.587 61.498 269.049 62.664 269.049 64.028 C 269.049 65.436 268.587 66.624 267.663 67.592 C 266.783 68.516 265.617 68.978 264.165 68.978 Z" fill="#3C3C3C"/>
  <path d="M 273.936 101.054 L 290.832 79.076 L 301.26 79.076 L 284.364 101.054 L 273.936 101.054 Z M 273.936 106.004 L 273.936 101.054 L 280.8 98.48 L 300.864 98.48 L 300.864 106.004 L 273.936 106.004 Z M 275.124 81.65 L 275.124 74.126 L 301.26 74.126 L 301.26 79.076 L 294.33 81.65 L 275.124 81.65 Z" fill="#3C3C3C"/>
  <path d="M 304.68 101.054 L 321.576 79.076 L 332.004 79.076 L 315.108 101.054 L 304.68 101.054 Z M 304.68 106.004 L 304.68 101.054 L 311.544 98.48 L 331.608 98.48 L 331.608 106.004 L 304.68 106.004 Z M 305.868 81.65 L 305.868 74.126 L 332.004 74.126 L 332.004 79.076 L 325.074 81.65 L 305.868 81.65 Z" fill="#3C3C3C"/>
  <path d="M 350.42 106.664 C 347.516 106.664 344.898 105.938 342.566 104.486 C 340.234 103.034 338.408 101.054 337.088 98.546 C 335.768 96.038 335.108 93.222 335.108 90.098 C 335.108 86.93 335.768 84.092 337.088 81.584 C 338.408 79.076 340.234 77.096 342.566 75.644 C 344.898 74.192 347.516 73.466 350.42 73.466 C 352.708 73.466 354.754 73.928 356.558 74.852 C 358.362 75.776 359.792 77.074 360.848 78.746 C 361.948 80.374 362.542 82.222 362.63 84.29 L 362.63 95.774 C 362.542 97.886 361.948 99.756 360.848 101.384 C 359.792 103.012 358.362 104.31 356.558 105.278 C 354.754 106.202 352.708 106.664 350.42 106.664 Z M 352.004 98.678 C 354.424 98.678 356.382 97.886 357.878 96.302 C 359.374 94.674 360.122 92.584 360.122 90.032 C 360.122 88.36 359.77 86.886 359.066 85.61 C 358.406 84.29 357.46 83.278 356.228 82.574 C 355.04 81.826 353.632 81.452 352.004 81.452 C 350.42 81.452 349.012 81.826 347.78 82.574 C 346.592 83.278 345.646 84.29 344.942 85.61 C 344.282 86.886 343.952 88.36 343.952 90.032 C 343.952 91.748 344.282 93.266 344.942 94.586 C 345.646 95.862 346.592 96.874 347.78 97.622 C 349.012 98.326 350.42 98.678 352.004 98.678 Z M 359.66 106.004 L 359.66 97.424 L 361.046 89.636 L 359.66 81.98 L 359.66 74.126 L 368.24 74.126 L 368.24 106.004 L 359.66 106.004 Z" fill="#3C3C3C"/>
  <path d="M 376.813 106.004 L 376.813 59.606 L 385.789 59.606 L 385.789 106.004 L 376.813 106.004 Z M 405.919 106.004 L 405.919 59.606 L 414.895 59.606 L 414.895 106.004 L 405.919 106.004 Z M 382.489 86.006 L 382.489 78.086 L 408.427 78.086 L 408.427 86.006 L 382.489 86.006 Z" fill="#3C3C3C"/>
  <path d="M 437.051 106.664 C 434.235 106.664 431.727 106.07 429.527 104.882 C 427.371 103.694 425.677 102.044 424.445 99.932 C 423.213 97.82 422.597 95.378 422.597 92.606 L 422.597 74.126 L 431.309 74.126 L 431.309 92.408 C 431.309 93.728 431.529 94.872 431.969 95.84 C 432.409 96.764 433.069 97.468 433.949 97.952 C 434.829 98.436 435.863 98.678 437.051 98.678 C 438.855 98.678 440.263 98.128 441.275 97.028 C 442.287 95.928 442.793 94.388 442.793 92.408 L 442.793 74.126 L 451.439 74.126 L 451.439 92.606 C 451.439 95.422 450.823 97.886 449.591 99.998 C 448.403 102.11 446.709 103.76 444.509 104.948 C 442.353 106.092 439.867 106.664 437.051 106.664 Z" fill="#3C3C3C"/>
  <path d="M 463.01 106.004 L 463.01 60.86 L 471.656 60.86 L 471.656 106.004 L 463.01 106.004 Z M 455.552 81.716 L 455.552 74.126 L 479.114 74.126 L 479.114 81.716 L 455.552 81.716 Z" fill="#3C3C3C"/>
</svg>